<svg width="22" height="22" viewBox="0 0 22 22" fill="none" xmlns="http://www.w3.org/2000/svg">
<g id="Group 93">
<circle id="Ellipse 37" cx="11" cy="11" r="11" fill="#0E50C5"/>
<path id="Vector" d="M8.82735 13.0296L6.78891 10.9527C6.67907 10.8408 6.5301 10.7779 6.37476 10.7779C6.21942 10.7779 6.07045 10.8408 5.96061 10.9527C5.85077 11.0646 5.78906 11.2164 5.78906 11.3747C5.78906 11.453 5.80421 11.5306 5.83365 11.603C5.86308 11.6754 5.90622 11.7412 5.96061 11.7966L8.41614 14.2985C8.64524 14.5319 9.01533 14.5319 9.24444 14.2985L15.4596 7.96599C15.5695 7.85407 15.6312 7.70229 15.6312 7.54402C15.6312 7.38575 15.5695 7.23396 15.4596 7.12205C15.3498 7.01014 15.2008 6.94727 15.0455 6.94727C14.8901 6.94727 14.7412 7.01014 14.6313 7.12205L8.82735 13.0296Z" fill="white"/>
</g>
</svg>
