<svg width="45" height="42" viewBox="0 0 45 42" fill="none" xmlns="http://www.w3.org/2000/svg">
<path d="M8.6625 2.6775C0.77 5.3025 0.6475 5.34625 0.32375 5.6875C0.02625 6.0025 0 6.0725 0 6.545V7.06125L2.4675 10.6838C3.815 12.6787 4.92625 14.3675 4.92625 14.4375C4.92625 14.5075 3.82375 16.1962 2.4675 18.1912L0 21.8137V22.3038C0 22.8113 0.14875 23.1525 0.49 23.4062C0.5775 23.4763 4.2875 24.7362 8.72375 26.2062C14.7437 28.2013 16.8875 28.875 17.2025 28.875C17.5088 28.875 17.6925 28.8225 17.9112 28.6475C18.095 28.5075 19.0312 27.1862 20.2738 25.3225C21.4112 23.6163 22.365 22.225 22.4 22.225C22.435 22.225 23.3888 23.6163 24.5263 25.3225C25.7687 27.1862 26.705 28.5075 26.8888 28.6475C27.1075 28.8225 27.2913 28.875 27.5975 28.875C27.9125 28.875 30.0562 28.2013 36.0763 26.2062C40.5125 24.7362 44.2225 23.4763 44.31 23.4062C44.6512 23.1525 44.8 22.8113 44.8 22.3038V21.8137L42.3325 18.1912C40.9762 16.1962 39.8737 14.5075 39.8737 14.4375C39.8737 14.3675 40.985 12.6787 42.3325 10.6838L44.8 7.06125V6.545C44.8 6.0725 44.7738 6.0025 44.4762 5.6875C44.1437 5.3375 44.0387 5.3025 36.0763 2.66875C30.0562 0.67375 27.9125 0 27.5975 0C27.2913 0 27.1075 0.0524998 26.8888 0.227499C26.705 0.3675 25.7687 1.68875 24.5263 3.5525C23.3888 5.25875 22.435 6.65 22.4 6.65C22.365 6.65 21.4112 5.25875 20.2738 3.5525C19.0312 1.68875 18.095 0.3675 17.9112 0.227499C17.3425 -0.210001 17.4212 -0.227501 8.6625 2.6775ZM28.105 12.53C31.1763 13.5538 33.6875 14.4113 33.6875 14.4375C33.6875 14.4637 31.15 15.33 28.0438 16.3625L22.4 18.2437L16.7563 16.3625C13.65 15.33 11.1125 14.4637 11.1125 14.4375C11.1125 14.3763 22.1375 10.6925 22.3563 10.6838C22.4525 10.675 25.0425 11.515 28.105 12.53Z" fill="#F7CB0F"/>
<path d="M21.2454 28.42C20.0291 30.2312 19.6091 30.6862 18.7429 31.0887C18.2441 31.325 18.0341 31.3687 17.3166 31.395L16.4766 31.43L11.0166 29.6187C8.01539 28.6213 5.50414 27.7812 5.44289 27.755C5.36414 27.7288 5.33789 28.5775 5.33789 31.8413V35.9625L5.65289 36.3038C5.95914 36.645 6.03789 36.68 13.9829 39.3225C19.7491 41.2475 22.1204 42 22.4004 42C22.6804 42 25.0516 41.2475 30.8179 39.3225C38.7629 36.68 38.8416 36.645 39.1479 36.3038L39.4629 35.9625V31.8413C39.4629 28.5775 39.4366 27.7288 39.3579 27.755C39.2966 27.7812 36.7854 28.6213 33.7841 29.6187L28.3241 31.43L27.4754 31.395C26.7316 31.3687 26.5566 31.325 26.0316 31.0712C25.6991 30.905 25.2529 30.6163 25.0429 30.415C24.8329 30.2225 24.1591 29.3212 23.5554 28.42C22.9516 27.5188 22.4354 26.775 22.4004 26.775C22.3654 26.775 21.8491 27.5188 21.2454 28.42Z" fill="#F7CB0F"/>
</svg>
