<svg width="44" height="44" viewBox="0 0 44 44" fill="none" xmlns="http://www.w3.org/2000/svg">
<path d="M7.76115 0.165783C6.3002 0.681408 5.15723 2.15954 5.15723 3.53455V3.94705H5.52676C6.60098 3.94705 7.76974 4.49706 8.72365 5.45097C9.78928 6.508 10.2276 7.55645 10.2276 9.01739C10.2276 10.4783 9.78928 11.5268 8.72365 12.5838C7.76974 13.5377 6.60098 14.0877 5.52676 14.0877H5.15723V15.5487V17.0096H5.52676C6.60098 17.0096 7.76974 17.5596 8.72365 18.5135C9.78928 19.5706 10.2276 20.619 10.2276 22.08C10.2276 23.5409 9.78928 24.5893 8.72365 25.6464C7.76974 26.6003 6.60098 27.1503 5.52676 27.1503H5.15723V28.5253V29.9003H5.52676C6.60098 29.9003 7.76974 30.4503 8.72365 31.4042C9.78928 32.4613 10.2276 33.5097 10.2276 34.9707C10.2276 36.4316 9.78928 37.48 8.72365 38.5371C7.76974 39.491 6.60098 40.041 5.52676 40.041H5.15723V40.4535C5.15723 41.8457 6.3088 43.3152 7.79552 43.8309C8.25959 43.9855 8.59474 43.9941 17.9792 43.9941H27.6816L27.1831 43.5387C24.6222 41.2269 23.2901 38.2965 23.2901 34.9707C23.2901 33.5871 23.4448 32.5988 23.8573 31.3613C24.8284 28.448 26.9597 25.9987 29.7183 24.6237C30.5691 24.194 31.9269 23.7558 32.8722 23.5925C33.8777 23.412 35.7425 23.412 36.791 23.5925C38.166 23.8245 39.9707 24.4862 41.0105 25.1394C41.191 25.2511 41.3543 25.3456 41.3801 25.3456C41.4059 25.3456 41.423 20.3612 41.423 14.2768C41.423 3.38845 41.423 3.1908 41.2512 2.69236C40.8301 1.48063 39.9363 0.612659 38.6043 0.157188C38.1488 0.00249863 37.6246 -0.00609589 23.1698 0.00249863C8.81818 0.00249863 8.19084 0.0110931 7.76115 0.165783ZM22.5511 5.3994C22.68 5.48534 22.869 5.6744 22.955 5.80331C23.1612 6.11269 23.1698 6.75723 22.9808 7.04082C22.7745 7.3502 17.8932 12.2573 17.4979 12.5494C17.0339 12.8932 16.4838 12.8932 16.0198 12.5494C15.8393 12.4119 15.0229 11.6299 14.2151 10.8135C13.1581 9.73927 12.7112 9.23223 12.6424 9.0002C12.4362 8.36426 12.8487 7.65098 13.5276 7.46191C14.0948 7.30723 14.3698 7.47051 15.6245 8.70802L16.7589 9.82521L18.9331 7.67676C20.119 6.49081 21.1932 5.45097 21.3136 5.37362C21.5972 5.18456 22.2417 5.19315 22.5511 5.3994ZM35.4074 7.96035C35.8027 8.20098 36.009 8.57051 36.009 9.01739C36.009 9.46427 35.8027 9.8338 35.4074 10.0744C35.1066 10.2635 35.0722 10.2635 30.9386 10.2635C26.9253 10.2635 26.762 10.2549 26.487 10.0916C25.5073 9.49865 25.7308 8.08067 26.848 7.80567C26.9941 7.77129 28.9105 7.74551 31.1105 7.7541C35.055 7.77129 35.1066 7.77129 35.4074 7.96035ZM22.5511 15.8838C22.68 15.9698 22.869 16.1588 22.955 16.2877C23.1612 16.5971 23.1698 17.2417 22.9808 17.5252C22.7745 17.8346 17.8932 22.7417 17.4979 23.0339C17.0339 23.3776 16.4838 23.3776 16.0198 23.0339C15.8393 22.8964 15.0229 22.1143 14.2151 21.2979C13.1581 20.2237 12.7112 19.7167 12.6424 19.4846C12.4362 18.8487 12.8487 18.1354 13.5276 17.9463C14.0948 17.7917 14.3698 17.9549 15.6245 19.1924L16.7589 20.3096L18.9331 18.1612C20.119 16.9752 21.1932 15.9354 21.3136 15.8581C21.5972 15.669 22.2417 15.6776 22.5511 15.8838ZM35.4074 18.4448C35.8027 18.6854 36.009 19.0549 36.009 19.5018C36.009 19.9487 35.8027 20.3182 35.4074 20.5589C35.1066 20.7479 35.0722 20.7479 30.9386 20.7479C26.9253 20.7479 26.762 20.7393 26.487 20.576C25.5073 19.9831 25.7308 18.5651 26.848 18.2901C26.9941 18.2557 28.9105 18.2299 31.1105 18.2385C35.055 18.2557 35.1066 18.2557 35.4074 18.4448ZM22.5511 26.1964C22.68 26.2823 22.869 26.4714 22.955 26.6003C23.1612 26.9097 23.1698 27.5542 22.9808 27.8378C22.7745 28.1472 17.8932 33.0542 17.4979 33.3464C17.0339 33.6902 16.4838 33.6902 16.0198 33.3464C15.8393 33.2089 15.0229 32.4269 14.2151 31.6105C13.1581 30.5363 12.7112 30.0292 12.6424 29.7972C12.4362 29.1612 12.8487 28.448 13.5276 28.2589C14.0948 28.1042 14.3698 28.2675 15.6245 29.505L16.7589 30.6222L18.9331 28.4737C20.119 27.2878 21.1932 26.248 21.3136 26.1706C21.5972 25.9815 22.2417 25.9901 22.5511 26.1964Z" fill="#F7CB0F"/>
<path d="M1.49532 6.64568C0.532815 7.09255 0 7.94334 0 9.01756C0 10.0918 0.532815 10.9426 1.49532 11.3895C1.91642 11.5871 2.01095 11.5957 3.86721 11.5957C5.72347 11.5957 5.818 11.5871 6.2391 11.3895C7.2016 10.9426 7.73442 10.0918 7.73442 9.01756C7.73442 7.94334 7.2016 7.09255 6.2391 6.64568C5.818 6.44802 5.72347 6.43943 3.86721 6.43943C2.01095 6.43943 1.91642 6.44802 1.49532 6.64568Z" fill="#F7CB0F"/>
<path d="M1.49532 19.7082C0.532815 20.1551 0 21.0058 0 22.0801C0 23.1543 0.532815 24.0051 1.49532 24.452C1.91642 24.6496 2.01095 24.6582 3.86721 24.6582C5.72347 24.6582 5.818 24.6496 6.2391 24.452C7.2016 24.0051 7.73442 23.1543 7.73442 22.0801C7.73442 21.0058 7.2016 20.1551 6.2391 19.7082C5.818 19.5105 5.72347 19.5019 3.86721 19.5019C2.01095 19.5019 1.91642 19.5105 1.49532 19.7082Z" fill="#F7CB0F"/>
<path d="M33.2055 26.0331C29.8453 26.6346 27.0953 29.1354 26.0641 32.5214C25.8492 33.2518 25.832 33.3893 25.832 34.9706C25.832 36.5519 25.8492 36.6894 26.0641 37.4198C27.0094 40.5222 29.261 42.7652 32.3547 43.7019C33.0766 43.9253 33.2399 43.9425 34.761 43.9425C36.4626 43.9511 36.8063 43.8996 37.9665 43.4785C40.1063 42.6878 41.9712 41.0722 42.9852 39.1128C43.7157 37.712 43.9993 36.5519 43.9993 34.9706C43.9993 32.8479 43.3462 31.0089 42.0227 29.3675C40.7509 27.8034 39.1524 26.7721 37.0813 26.1877C36.3938 25.9987 33.9704 25.8956 33.2055 26.0331ZM35.4227 31.3354C35.8696 31.6018 36.0243 31.9714 36.0758 32.8651L36.1188 33.6558L36.9094 33.6987C37.5196 33.7331 37.7774 33.7847 37.9923 33.9222C38.379 34.1542 38.5852 34.5323 38.5852 34.9706C38.5852 35.4175 38.379 35.787 37.9837 36.0276C37.7001 36.2081 37.5798 36.2167 36.093 36.2167C34.3055 36.2167 34.1165 36.1651 33.7469 35.5722C33.5664 35.2886 33.5579 35.1683 33.5579 33.6815C33.5579 32.212 33.575 32.0659 33.7383 31.8081C34.1165 31.2151 34.8555 31.0089 35.4227 31.3354Z" fill="#F7CB0F"/>
<path d="M1.49532 32.5988C0.532815 33.0457 0 33.8965 0 34.9707C0 36.0449 0.532815 36.8957 1.49532 37.3426C1.91642 37.5402 2.01095 37.5488 3.86721 37.5488C5.72347 37.5488 5.818 37.5402 6.2391 37.3426C7.2016 36.8957 7.73442 36.0449 7.73442 34.9707C7.73442 33.8965 7.2016 33.0457 6.2391 32.5988C5.818 32.4011 5.72347 32.3926 3.86721 32.3926C2.01095 32.3926 1.91642 32.4011 1.49532 32.5988Z" fill="#F7CB0F"/>
</svg>
