<svg width="44" height="44" viewBox="0 0 44 44" fill="none" xmlns="http://www.w3.org/2000/svg">
<path d="M14.2684 0.1287C6.93538 1.24627 1.20998 6.99746 0.135398 14.3562C-0.0451326 15.5598 -0.0451326 17.9496 0.135398 19.1532C0.419089 21.096 0.943487 22.7294 1.85474 24.4831C4.36497 29.3317 8.99859 32.6156 14.4403 33.3979C15.8244 33.5956 18.3948 33.5269 19.7359 33.2604L20.6987 33.0712L20.7503 32.5038C20.9824 30.1913 21.8163 27.896 23.0972 26.0993C23.7333 25.1967 25.2034 23.7266 26.106 23.0905C27.9027 21.8096 30.198 20.9757 32.5105 20.7436L33.0779 20.692L33.2671 19.7292C33.5422 18.3881 33.6023 15.8177 33.4046 14.4336C32.3128 6.97167 26.5874 1.22048 19.1599 0.1287C18.0079 -0.0432358 15.4031 -0.0432358 14.2684 0.1287ZM17.3804 7.96029C17.5179 8.04625 17.7156 8.25257 17.8188 8.41591C17.9993 8.7082 18.0079 8.79417 18.0337 12.0867L18.0595 15.4566L21.4294 15.4824C25.1776 15.5082 25.1604 15.5082 25.5214 16.0928C25.8825 16.6859 25.702 17.4424 25.1002 17.8121C24.7993 18.0012 24.7649 18.0012 20.6299 18.0012C16.6153 18.0012 16.4519 17.9926 16.1768 17.8293C16.0221 17.7347 15.8072 17.5198 15.704 17.3565C15.5149 17.0556 15.5149 17.0212 15.5149 12.8862C15.5149 9.03487 15.5235 8.69101 15.6696 8.43311C15.9791 7.85713 16.813 7.63361 17.3804 7.96029Z" fill="#F7CB0F"/>
<path d="M31.5555 23.5549C27.687 24.3888 24.7125 27.2343 23.6552 31.1114C23.4488 31.8679 23.4316 32.057 23.4316 33.6904C23.4316 35.3238 23.4488 35.5129 23.6552 36.2694C24.7383 40.2497 27.9019 43.1898 31.8392 43.8775C32.8106 44.0408 34.5816 44.0408 35.553 43.8775C39.6966 43.1554 42.9805 39.9316 43.8402 35.745C44.0035 34.9713 44.0207 34.6532 43.9863 33.3895C43.9434 31.7218 43.7714 30.8793 43.1782 29.5038C42.1982 27.2429 40.1436 25.1883 37.8827 24.2083C36.4642 23.5979 35.6733 23.4432 33.911 23.4088C32.6043 23.383 32.2347 23.4088 31.5555 23.5549ZM34.2979 28.7473C34.4268 28.8161 34.6331 29.0138 34.7449 29.1943C34.9426 29.5124 34.9426 29.5726 34.9684 32.0055L34.9942 34.4899L35.2693 34.2234C35.6475 33.8709 35.8625 33.7764 36.2751 33.7764C36.7307 33.7764 37.1004 33.9741 37.3067 34.318C37.4958 34.6275 37.5302 35.2292 37.3841 35.5215C37.2465 35.788 34.5558 38.496 34.2807 38.6421C34.0056 38.7883 33.4124 38.7969 33.1545 38.6679C32.888 38.5304 30.18 35.8396 30.0339 35.5645C29.8792 35.2636 29.8792 34.6962 30.0425 34.3696C30.2316 34.0171 30.6529 33.7764 31.0999 33.7764C31.5297 33.7764 31.7446 33.8709 32.1229 34.2234L32.398 34.4899L32.4238 32.0055C32.4496 29.2545 32.4668 29.16 33.0256 28.7989C33.3608 28.584 33.9368 28.5582 34.2979 28.7473Z" fill="#F7CB0F"/>
</svg>
