<svg width="18" height="15" viewBox="0 0 18 15" fill="none" xmlns="http://www.w3.org/2000/svg">
<path id="Vector" d="M16.2 0.402344H1.8C0.81 0.402344 0 1.18984 0 2.15234V12.6523C0 13.6148 0.81 14.4023 1.8 14.4023H16.2C17.19 14.4023 18 13.6148 18 12.6523V2.15234C18 1.18984 17.19 0.402344 16.2 0.402344ZM15.84 4.12109L9.954 7.69984C9.369 8.05859 8.631 8.05859 8.046 7.69984L2.16 4.12109C2.06975 4.07184 1.99073 4.0053 1.9277 3.92549C1.86467 3.84568 1.81896 3.75427 1.79332 3.65679C1.76768 3.55931 1.76265 3.45779 1.77854 3.35836C1.79443 3.25894 1.8309 3.16368 1.88575 3.07836C1.9406 2.99303 2.01269 2.91942 2.09765 2.86196C2.18262 2.80451 2.27868 2.76442 2.38005 2.74411C2.48141 2.72379 2.58595 2.72369 2.68736 2.7438C2.78876 2.76391 2.88492 2.80381 2.97 2.86109L9 6.52734L15.03 2.86109C15.1151 2.80381 15.2112 2.76391 15.3126 2.7438C15.414 2.72369 15.5186 2.72379 15.62 2.74411C15.7213 2.76442 15.8174 2.80451 15.9023 2.86196C15.9873 2.91942 16.0594 2.99303 16.1142 3.07836C16.1691 3.16368 16.2056 3.25894 16.2215 3.35836C16.2373 3.45779 16.2323 3.55931 16.2067 3.65679C16.181 3.75427 16.1353 3.84568 16.0723 3.92549C16.0093 4.0053 15.9302 4.07184 15.84 4.12109Z" fill="#F8F2F2"/>
</svg>
