<svg width="17" height="18" viewBox="0 0 17 18" fill="none" xmlns="http://www.w3.org/2000/svg">
<path id="Vector" d="M15.3343 11.9952L12.9306 11.7207C12.648 11.6875 12.3615 11.7188 12.0927 11.8123C11.8239 11.9057 11.5797 12.0588 11.3786 12.2602L9.63731 14.0015C6.95081 12.6351 4.76719 10.4515 3.40087 7.76498L5.15162 6.01423C5.55855 5.60729 5.75728 5.03948 5.69104 4.4622L5.41659 2.07739C5.36294 1.61574 5.14139 1.18994 4.79412 0.881056C4.44685 0.572176 3.99812 0.401793 3.53336 0.402345H1.89618C0.826801 0.402345 -0.0627681 1.29192 0.00347639 2.3613C0.505041 10.4432 6.96861 16.8973 15.041 17.3989C16.1103 17.4651 16.9999 16.5755 16.9999 15.5062V13.869C17.0094 12.9131 16.2901 12.1087 15.3343 11.9952Z" fill="#F8F2F2"/>
</svg>
