<svg width="92" height="92" viewBox="0 0 92 92" fill="none" xmlns="http://www.w3.org/2000/svg">
<path id="Vector" d="M46 0C36.9021 0 28.0084 2.69785 20.4438 7.7524C12.8791 12.8069 6.98319 19.9912 3.50156 28.3966C0.0199311 36.8019 -0.891022 46.051 0.883898 54.9741C2.65882 63.8973 7.03989 72.0937 13.4731 78.5269C19.9063 84.9601 28.1027 89.3412 37.0259 91.1161C45.949 92.891 55.198 91.9801 63.6034 88.4984C72.0088 85.0168 79.1931 79.1209 84.2476 71.5562C89.3021 63.9915 92 55.0979 92 46C92 39.9592 90.8102 33.9775 88.4985 28.3966C86.1867 22.8156 82.7984 17.7446 78.5269 13.4731C74.2554 9.20159 69.1844 5.81326 63.6034 3.50154C58.0225 1.18982 52.0408 0 46 0ZM36.8 66.7V25.3L64.4 46L36.8 66.7Z" fill="#F8EFEF"/>
</svg>
