<svg width="111" height="19" viewBox="0 0 111 19" fill="none" xmlns="http://www.w3.org/2000/svg">
<g id="Group 174">
<path id="Vector" d="M3.62041 18.0698L5.15849 11.3887L0 6.89504L6.81488 6.30064L9.46512 0L12.1153 6.30064L18.9302 6.89504L13.7717 11.3887L15.3098 18.0698L9.46512 14.5271L3.62041 18.0698Z" fill="#F7CB0F"/>
<path id="Vector_2" d="M26.853 18.0698L28.391 11.3887L23.2326 6.89504L30.0474 6.30064L32.6977 0L35.3479 6.30064L42.1628 6.89504L37.0043 11.3887L38.5424 18.0698L32.6977 14.5271L26.853 18.0698Z" fill="#F7CB0F"/>
<path id="Vector_3" d="M49.921 18.0698L51.3891 11.3887L46.4651 6.89504L52.9702 6.30064L55.5 0L58.0298 6.30064L64.5349 6.89504L59.6109 11.3887L61.079 18.0698L55.5 14.5271L49.921 18.0698Z" fill="#F7CB0F"/>
<path id="Vector_4" d="M72.4576 18.0698L73.9957 11.3887L68.8372 6.89504L75.6521 6.30064L78.3023 0L80.9526 6.30064L87.7675 6.89504L82.609 11.3887L84.147 18.0698L78.3023 14.5271L72.4576 18.0698Z" fill="#F7CB0F"/>
<path id="Vector_5" d="M95.6902 18.0698L97.2283 11.3887L92.0698 6.89504L98.8846 6.30064L101.535 0L104.185 6.30064L111 6.89504L105.842 11.3887L107.38 18.0698L101.535 14.5271L95.6902 18.0698Z" fill="#F7CB0F"/>
</g>
</svg>
