<svg width="48" height="48" viewBox="0 0 48 48" fill="none" xmlns="http://www.w3.org/2000/svg">
<g id="Group 65">
<circle id="Ellipse 29" cx="24" cy="24" r="24" fill="#F7CB0F"/>
<path id="Vector" d="M22.7368 21.2623C22.7367 20.2969 22.4356 19.358 21.8795 18.5891C21.3234 17.8202 20.543 17.2636 19.6573 17.0043C18.7716 16.7449 17.8295 16.7972 16.9748 17.1529C16.12 17.5087 15.3997 18.1485 14.9237 18.9745C14.4478 19.8006 14.2425 20.7675 14.3391 21.7277C14.4357 22.6878 14.829 23.5883 15.4588 24.2917C16.0886 24.9951 16.9204 25.4626 17.8271 25.6229C18.7338 25.7833 19.6655 25.6276 20.48 25.1796C20.1985 26.276 19.8015 27.1944 19.3263 27.9271C18.3759 29.3949 17.1308 30.1049 15.8196 30.1049C15.5803 30.1049 15.3508 30.2047 15.1816 30.3824C15.0124 30.56 14.9173 30.801 14.9173 31.0523C14.9173 31.3035 15.0124 31.5445 15.1816 31.7222C15.3508 31.8999 15.5803 31.9997 15.8196 31.9997C17.8298 31.9997 19.5934 30.8843 20.8192 28.9932C22.0343 27.1161 22.7368 24.4671 22.7368 21.2623Z" fill="white"/>
<path id="Vector_2" d="M34.5263 21.2623C34.5262 20.2969 34.225 19.358 33.669 18.5891C33.1129 17.8202 32.3324 17.2636 31.4468 17.0043C30.5611 16.7449 29.619 16.7972 28.7642 17.1529C27.9095 17.5087 27.1891 18.1485 26.7132 18.9745C26.2373 19.8006 26.032 20.7675 26.1286 21.7277C26.2252 22.6878 26.6184 23.5883 27.2483 24.2917C27.8781 24.9951 28.7099 25.4626 29.6166 25.6229C30.5233 25.7833 31.455 25.6276 32.2695 25.1796C31.988 26.276 31.591 27.1944 31.1158 27.9271C30.1654 29.3949 28.9203 30.1049 27.609 30.1049C27.3697 30.1049 27.1402 30.2047 26.971 30.3824C26.8018 30.56 26.7068 30.801 26.7068 31.0523C26.7068 31.3035 26.8018 31.5445 26.971 31.7222C27.1402 31.8999 27.3697 31.9997 27.609 31.9997C29.6192 31.9997 31.3829 30.8843 32.6087 28.9932C33.8238 27.1161 34.5263 24.4671 34.5263 21.2623Z" fill="white"/>
</g>
</svg>
