<svg width="124" height="67" viewBox="0 0 124 67" fill="none" xmlns="http://www.w3.org/2000/svg">
<path d="M59.8333 5.66452C63.978 5.7126 66.164 5.74154 67.3933 5.80727C68.0063 5.84004 68.4098 5.88308 68.7104 5.95006C69.0329 6.02195 69.2289 6.11978 69.4237 6.23436L69.4238 6.23447C71.8134 7.64142 71.8134 10.8518 69.4238 12.2587L69.4237 12.2588C69.2221 12.3774 69.0236 12.4759 68.652 12.5464C68.3097 12.6113 67.8158 12.6537 67.0162 12.6862C65.4094 12.7517 62.4561 12.7806 56.7498 12.8287C51.2846 12.8769 48.3413 12.9058 46.7027 12.9633C45.8799 12.9921 45.4086 13.0277 45.1188 13.0721C44.8429 13.1145 44.7756 13.1587 44.7366 13.1852L44.7366 13.1853L44.7274 13.1913C44.025 13.6467 43.6407 14.503 43.6407 15.4108C43.6407 16.3187 44.025 17.1749 44.7274 17.6304L44.7275 17.6303L44.7366 17.6364L44.7385 17.6378C44.7636 17.655 44.8335 17.703 45.1997 17.7474C45.5807 17.7935 46.217 17.8294 47.3409 17.8583C49.5813 17.9159 53.6825 17.9448 61.3715 17.993C61.3716 17.993 61.3716 17.993 61.3717 17.993L61.6095 17.9944C69.4909 18.0416 73.5378 18.0658 75.6931 18.128C76.7763 18.1593 77.4083 18.2006 77.8159 18.2645C78.0245 18.2972 78.1888 18.3379 78.3331 18.3926C78.4777 18.4475 78.5849 18.5102 78.675 18.5657C81.0598 19.9742 81.0582 23.1812 78.6702 24.5872L78.67 24.5873C78.4684 24.7059 78.27 24.8043 77.8984 24.8748C77.556 24.9398 77.0622 24.9821 76.2625 25.0147C74.6558 25.0801 71.7024 25.1091 65.9961 25.1572C60.5309 25.2054 57.5877 25.2342 55.949 25.2917C55.1263 25.3206 54.6549 25.3561 54.3652 25.4006C54.0893 25.443 54.022 25.4872 53.9829 25.5137L53.983 25.5138L53.9738 25.5198C53.2714 25.9752 52.8871 26.8315 52.8871 27.7393C52.8871 28.6471 53.2714 29.5034 53.9738 29.9588L53.9738 29.9588L53.9791 29.9623C54.0829 30.0315 54.2491 30.1193 55.31 30.1802C56.3466 30.2396 58.1346 30.2732 61.376 30.3215C64.7394 30.3695 66.5471 30.3985 67.5908 30.4645C68.1124 30.4975 68.4715 30.5411 68.7502 30.6094C69.0455 30.6818 69.2381 30.779 69.4266 30.893C71.8119 32.2999 71.8125 35.5051 69.4284 36.913C69.2215 37.0404 69.0184 37.1418 68.6226 37.2124C68.2569 37.2777 67.7151 37.3192 66.8207 37.3505C65.0475 37.4126 61.777 37.4368 55.475 37.4837L55.2082 37.4856C55.2081 37.4856 55.2081 37.4856 55.208 37.4856C49.0017 37.5338 45.6723 37.5627 43.833 37.6203C42.9096 37.6491 42.3832 37.6848 42.0629 37.73C41.7557 37.7733 41.6887 37.8189 41.6551 37.8417L41.6545 37.8422L41.6545 37.8423L41.6453 37.8482C40.9429 38.3037 40.5586 39.1599 40.5586 40.0678C40.5586 40.9756 40.9429 41.8319 41.6453 42.2873L41.6464 42.288C41.7665 42.3663 41.9442 42.4478 42.5737 42.5103C43.206 42.573 44.2215 42.6114 45.969 42.65C47.7815 42.6884 48.8363 42.7222 49.5124 42.7948C50.2145 42.8702 50.5596 42.9929 50.9334 43.2212C53.3201 44.6089 53.3206 47.8567 50.9504 49.2442C50.3002 49.629 49.5235 49.7188 47.5205 49.7944C46.1068 49.8627 45.3691 49.9401 44.8997 50.1095C44.4987 50.2542 44.2866 50.4676 43.9781 50.9787L43.9782 50.9787L43.9762 50.9818C43.7822 51.298 43.66 51.8261 43.66 52.4059C43.66 52.9857 43.7822 53.5138 43.9762 53.8299L43.9767 53.8307C44.1463 54.1082 44.5293 54.4918 44.8079 54.6637C44.9326 54.7358 45.0271 54.7809 45.1599 54.8176C45.3044 54.8574 45.5112 54.8916 45.8617 54.9171C46.5689 54.9684 47.7607 54.9784 50.0032 54.9784H54.819H55.1435L55.2757 55.2747L55.9106 56.6984C56.6534 58.3277 58.1288 59.835 59.6896 60.5526L59.691 60.5533C61.1442 61.2267 63.5389 61.3453 65.3253 60.7985L65.3283 60.7976C67.6427 60.1051 69.6899 58.3868 70.7648 56.2758L71.264 55.2581L71.4013 54.9784H71.7129H83.3094H94.8866H95.2111L95.3432 55.2747L95.9773 56.6966C95.9775 56.6971 95.9778 56.6977 95.9781 56.6983C96.7209 58.3277 98.1963 59.835 99.7571 60.5526L99.7585 60.5533C101.212 61.2267 103.606 61.3453 105.393 60.7985L105.396 60.7976C107.71 60.1051 109.757 58.3869 110.832 56.2761C110.833 56.2749 110.833 56.2738 110.834 56.2726L111.332 55.2581L111.469 54.9784H111.78H115.306C116.976 54.9784 117.83 54.9729 118.345 54.9207C118.594 54.8955 118.736 54.8614 118.839 54.823C118.94 54.7853 119.028 54.7349 119.166 54.6413C119.22 54.6044 119.269 54.5707 119.315 54.5395C119.6 54.3465 119.74 54.2511 119.867 54.0835C120.009 53.8958 120.152 53.5814 120.307 52.8597C120.598 51.5002 120.884 48.9544 121.467 43.7608C121.506 43.4095 121.547 43.0462 121.589 42.6703C122.242 36.7161 122.776 31.4525 122.8 30.8893C122.798 30.5598 122.723 30.1511 122.24 28.9268C121.756 27.6983 120.889 25.7105 119.356 22.2394L119.356 22.2388C118.403 20.0731 117.493 18.0379 116.796 16.5038C116.447 15.7366 116.152 15.0961 115.931 14.6277C115.821 14.3933 115.73 14.2039 115.661 14.064C115.626 13.994 115.598 13.9383 115.576 13.8965C115.569 13.8849 115.564 13.8748 115.559 13.8661C115.556 13.8591 115.552 13.8531 115.549 13.8479C115.544 13.8391 115.542 13.8346 115.541 13.8332L115.541 13.8333L115.534 13.8218C115.337 13.4994 115.246 13.3657 115.094 13.2627C114.939 13.1576 114.666 13.0535 114.047 12.9793C112.8 12.8298 110.464 12.8287 105.693 12.8287H105.658C101.509 12.8287 99.3549 12.8287 98.2417 12.7825C97.7043 12.7602 97.3404 12.7264 97.1085 12.648C96.9816 12.6051 96.8181 12.5248 96.7082 12.355C96.6018 12.1905 96.6018 12.0226 96.6019 11.9638V11.9627C96.6019 11.8238 96.6594 11.2035 96.7441 10.3688C96.831 9.51193 96.9516 8.38314 97.0866 7.18713L97.0867 7.18581C97.2794 5.51894 97.3935 4.40432 97.4407 3.63678C97.4884 2.86176 97.4631 2.49564 97.4098 2.29157C97.2431 1.7232 96.677 1.03867 96.0156 0.681919C96.0115 0.681328 96.0069 0.680679 96.0019 0.680008C95.9499 0.673103 95.8706 0.665436 95.7585 0.65757C95.5359 0.641933 95.2104 0.62727 94.771 0.613789C93.8938 0.586872 92.5828 0.565235 90.7764 0.548389C87.1647 0.514702 81.5853 0.500252 73.5622 0.500252C62.6465 0.500252 57.095 0.500271 54.1941 0.54834C52.7383 0.572464 51.9718 0.608543 51.5344 0.659435C51.3181 0.684593 51.2032 0.711239 51.1349 0.733555C51.0765 0.752693 51.0414 0.771732 50.981 0.80954L50.9765 0.812267C50.2368 1.26388 49.8214 2.12728 49.8024 3.04214C49.7835 3.9558 50.1617 4.82744 50.8906 5.30117C51.0017 5.37211 51.1815 5.46203 52.4449 5.523C53.6808 5.58265 55.8511 5.61631 59.8333 5.66452ZM59.8333 5.66452L59.8275 6.16449M59.8333 5.66452C59.8334 5.66452 59.8335 5.66452 59.8335 5.66452L59.8275 6.16449M59.8275 6.16449C68.1299 6.2608 68.5152 6.28007 69.1702 6.66533C71.2313 7.87891 71.2313 10.6143 69.1702 11.8279C68.5152 12.2131 68.1685 12.2324 56.7454 12.3287C45.8231 12.425 44.937 12.4443 44.4554 12.7718L59.8275 6.16449ZM96.0443 0.686691C96.0439 0.686604 96.0434 0.686489 96.0427 0.686352L96.0443 0.686691ZM112.076 19.1796L112.079 19.1863L112.082 19.1931C112.145 19.3321 112.353 19.7893 112.658 20.461C113.199 21.6504 114.046 23.5126 114.933 25.4719L114.934 25.4736L117.438 31.0599L117.492 31.1819L117.479 31.3149L117.344 32.6441L117.344 32.6448L117.209 33.9547L117.163 34.4035H116.712H110.027C108.194 34.4035 106.436 34.3794 105.085 34.3432C104.41 34.325 103.834 34.3038 103.4 34.2809C103.183 34.2695 102.998 34.2575 102.853 34.245C102.72 34.2336 102.589 34.2194 102.498 34.1979C101.944 34.0701 101.465 33.8666 101.052 33.5486C100.638 33.2302 100.315 32.8166 100.049 32.3045L100.047 32.3017L99.662 31.5504L99.5934 31.4166L99.61 31.267L100.207 25.8926L100.207 25.8921C100.532 23.0016 100.705 21.4598 100.97 20.5406C101.109 20.0596 101.283 19.7094 101.539 19.4125C101.784 19.1288 102.084 18.919 102.404 18.6981L102.404 18.6979L102.414 18.6914C102.576 18.5851 102.744 18.481 102.966 18.4016C103.185 18.3234 103.432 18.2776 103.755 18.2479C104.386 18.1898 105.417 18.1856 107.311 18.1856H111.28H111.592L111.729 18.4669L112.076 19.1796ZM65.3941 49.275L65.4018 49.2791L65.4094 49.2834C65.6058 49.3944 65.7683 49.5676 65.8963 49.74C66.0288 49.9186 66.1477 50.1282 66.2472 50.3477C66.4433 50.78 66.588 51.304 66.588 51.7798C66.588 52.3712 66.3218 53.06 65.9715 53.6506C65.6169 54.2484 65.1265 54.8299 64.5911 55.183L64.5911 55.183L64.5868 55.1858C63.7855 55.7025 62.9574 55.9185 62.2047 55.6923C61.4425 55.4634 60.9024 54.8255 60.5896 53.9517L60.5896 53.9517L60.5874 53.9455C60.3015 53.1126 60.5455 52.0885 60.9863 51.2508C61.4321 50.4034 62.1531 49.6029 63.0107 49.2553L63.0107 49.2552L63.02 49.2516C63.4093 49.1028 63.8412 49.0308 64.246 49.0308C64.6448 49.0308 65.0591 49.1008 65.3941 49.275ZM105.462 49.275L105.469 49.2791L105.477 49.2834C105.673 49.3944 105.836 49.5676 105.964 49.74C106.096 49.9186 106.215 50.1282 106.315 50.3477C106.511 50.78 106.656 51.304 106.656 51.7798C106.656 52.3712 106.389 53.06 106.039 53.6506C105.684 54.2484 105.194 54.8299 104.659 55.183L104.654 55.1858C103.853 55.7025 103.025 55.9185 102.272 55.6923C101.51 55.4634 100.97 54.8255 100.657 53.9517L100.657 53.9517L100.655 53.9455C100.369 53.1126 100.613 52.0885 101.054 51.2508C101.5 50.4034 102.221 49.6029 103.078 49.2553L103.078 49.2552L103.088 49.2516C103.477 49.1028 103.909 49.0308 104.314 49.0308C104.712 49.0308 105.127 49.1008 105.462 49.275Z" stroke="#F7CB0F" stroke-opacity="0.6"/>
<path d="M38.646 25.47C38.2534 25.7166 37.9748 26.0131 37.7905 26.3682C37.604 26.7277 37.5 27.1747 37.5 27.7392C37.5 28.3036 37.604 28.7506 37.7905 29.1101C37.9748 29.4652 38.2534 29.7617 38.646 30.0083C39.0615 30.251 39.3434 30.3213 41.6232 30.3213C43.0933 30.3213 43.8876 30.2688 44.4031 30.1004C44.8513 29.954 45.1017 29.716 45.4335 29.1751C45.63 28.8464 45.7512 28.3162 45.7512 27.7392C45.7512 27.1622 45.63 26.632 45.4335 26.3032C45.1017 25.7623 44.8513 25.5243 44.4031 25.3779C43.8876 25.2095 43.0933 25.1571 41.6232 25.1571C39.3434 25.1571 39.0615 25.2274 38.646 25.47Z" stroke="#F7CB0F" stroke-opacity="0.6"/>
<path d="M36.8683 22.232C36.3203 22.3386 35.2395 22.7496 34.4783 23.1302C30.3531 25.17 27.887 29.9041 28.4655 34.6687C29.0135 39.1594 31.7535 42.6909 35.7875 44.1219C36.99 44.5481 37.2488 44.5938 39.0755 44.5938C41.4198 44.5938 42.5158 44.3197 44.3577 43.2237C47.0368 41.6558 48.9396 38.9462 49.5942 35.7343C49.9291 34.1207 49.8225 31.3046 49.3506 29.828C47.6457 24.348 42.257 21.0751 36.8683 22.232Z" fill="#F7CB11"/>
<path d="M14.4148 23.6634C10.9746 24.3636 8.02144 27.2406 7.1081 30.8179C6.52965 33.086 6.92543 36.2371 8.05189 38.2617C8.82823 39.6621 10.7767 41.5801 12.0706 42.2043C15.7088 43.9701 19.697 43.285 22.5741 40.408C24.6291 38.353 25.5424 35.887 25.4054 32.8729C25.1923 28.4432 22.4066 24.8507 18.3727 23.8156C17.1549 23.4959 15.5413 23.435 14.4148 23.6634Z" fill="#F7CB11"/>
<path d="M60.0829 23.6631C55.6684 24.6221 52.5479 28.6256 52.5479 33.3446C52.5479 37.1197 54.679 40.6665 57.8909 42.204C59.5197 42.9803 60.6918 43.2239 62.4881 43.1021C64.5127 42.9803 65.7457 42.5085 67.4201 41.245C69.7644 39.4944 71.1344 36.6022 71.1496 33.4359C71.1496 30.635 70.2972 28.3973 68.5161 26.5097C66.7199 24.5765 64.7562 23.6631 62.2141 23.5718C61.3768 23.5413 60.4178 23.587 60.0829 23.6631Z" fill="#F7CB11"/>
<path d="M11.4168 44.3659C6.3173 45.264 2.1768 48.9174 0.548006 53.956C0.152224 55.2195 0.137002 55.3717 0.076112 59.5426L0 63.8506H8.99644H17.9929V62.2827C17.9929 57.2441 19.7587 52.7382 23.0772 49.2675C23.7469 48.5673 24.7364 47.6844 25.2692 47.2886C26.3956 46.4514 26.4109 46.5123 24.432 45.5533C22.0268 44.4116 21.3722 44.305 16.4706 44.2746C14.0807 44.2594 11.8126 44.2898 11.4168 44.3659Z" fill="#F7CB11"/>
<path d="M56.6584 44.5029C55.9429 44.6551 54.9839 44.9444 54.5273 45.127C53.5074 45.5228 51.9395 46.3601 51.9395 46.4818C51.9395 46.5275 52.3048 46.8167 52.731 47.1059C53.8575 47.8671 55.8668 49.9069 56.8106 51.2312C59.0483 54.4127 60.1595 57.9443 60.1595 61.8869V63.8506H69.0799H78.0002L77.9241 59.5426C77.8632 55.3717 77.848 55.2195 77.4522 53.956C75.9756 49.3741 72.5506 46.0404 67.8925 44.6551C66.8878 44.3507 66.3855 44.3202 62.3668 44.2746C58.5003 44.2289 57.7849 44.2594 56.6584 44.5029Z" fill="#F7CB11"/>
<path d="M33.5193 48.2322C28.7091 49.2978 24.8578 52.6011 23.2899 57.0003C22.681 58.7053 22.544 59.6338 22.4527 62.8914L22.3613 66.1338H39.0603H55.7441V63.0284C55.7441 60.2732 55.6984 59.7708 55.3787 58.5074C54.922 56.7111 54.3131 55.3411 53.2932 53.8798C51.3296 51.0332 48.0415 48.8868 44.6621 48.2322C43.2008 47.9582 34.7828 47.9582 33.5193 48.2322Z" fill="#F7CB11"/>
</svg>
