<svg width="45" height="43" viewBox="0 0 45 43" fill="none" xmlns="http://www.w3.org/2000/svg">
<path d="M20.9539 0.0126553C19.3955 0.194466 18.4086 0.436878 17.3177 0.913046C16.0191 1.46713 15.1533 2.06451 13.898 3.2506C13.0322 4.05576 12.9023 4.24622 12.9023 4.67045C12.9023 4.93017 12.9629 5.06004 13.188 5.27648L13.4651 5.56218L14.6339 5.62278C19.1531 5.85654 21.4734 7.17249 21.9928 9.80441C22.166 10.6529 22.0621 12.1679 21.8024 12.8779C21.5513 13.5358 21.0145 14.4709 20.5643 14.9817L20.27 15.3366L23.3261 18.3927L26.3822 21.4489L27.1441 20.9554C28.5639 20.0377 30.1223 19.3105 31.0487 19.1286L31.3257 19.0767L31.3604 19.8905C31.3863 20.5485 31.4296 20.7563 31.5768 20.9554C31.6807 21.1026 32.8062 22.254 34.0875 23.518C36.1047 25.5266 36.451 25.8296 36.7367 25.8816C36.9791 25.9249 37.1436 25.8989 37.3601 25.7863C37.5938 25.6651 43.2386 19.3364 44.139 18.185C44.4247 17.83 44.3987 17.3019 44.0784 16.8777C43.784 16.4794 40.5807 13.2934 40.2604 13.0856C40.1132 12.9904 39.8535 12.9471 39.4206 12.9471H38.7886V12.3151C38.7886 11.7437 38.7626 11.6398 38.5375 11.3368C38.1739 10.8347 30.3561 3.10342 29.6548 2.54933C27.4904 0.835127 25.4039 0.0905743 22.5556 0.0126553C21.8456 -0.00465965 21.1184 -0.00465965 20.9539 0.0126553Z" fill="#F7CB0F"/>
<path d="M9.90787 25.6913C0.0901471 35.535 0.462424 35.1194 0.142093 36.3748C-0.0743476 37.2232 -0.0397172 38.4526 0.220011 39.2404C0.774098 40.8681 2.10737 42.0715 3.76963 42.4264C4.5315 42.5909 4.99901 42.5909 5.76088 42.4264C6.54872 42.2619 7.37985 41.8464 7.91662 41.3529C8.23695 41.0585 24.0024 23.778 24.8682 22.765C25.0154 22.6005 24.9375 22.5053 22.0112 19.5877L19.007 16.5835L9.90787 25.6913Z" fill="#F7CB0F"/>
</svg>
