<svg width="45" height="34" viewBox="0 0 45 34" fill="none" xmlns="http://www.w3.org/2000/svg">
<path d="M0 8.67602V17.3516H13.3403H26.6806V8.67602V0.000476837H13.3403H0V8.67602Z" fill="#F7CB0F"/>
<path d="M29.209 17.3597C29.209 24.3699 29.2351 27.8924 29.2962 27.8575C29.3485 27.8313 29.3834 27.7354 29.3834 27.657C29.3834 27.3605 30.1768 25.9219 30.6476 25.3464C30.9092 25.0238 31.3539 24.5791 31.6329 24.3611C32.2345 23.8816 33.4901 23.2538 34.2661 23.0445C35.0421 22.8353 36.8034 22.8353 37.5794 23.0445C38.957 23.4195 40.3172 24.3088 41.224 25.4249C41.7733 26.105 42.3923 27.3518 42.558 28.0929L42.6626 28.5986H43.6566H44.6419V23.7595V18.9204H39.9335H35.2252V12.8606V6.80079H32.2171H29.209V17.3597Z" fill="#F7CB0F"/>
<path d="M37.7539 11.7269V16.3916H41.2067H44.6682L44.6159 15.2756C44.5636 13.959 44.363 13.1219 43.805 11.9536C42.7587 9.7389 40.8754 8.04739 38.5909 7.2801C38.2335 7.15803 37.9021 7.06212 37.8498 7.06212C37.7801 7.06212 37.7539 8.4659 37.7539 11.7269Z" fill="#F7CB0F"/>
<path d="M0 24.2391V28.5986H1.11605H2.24082L2.35417 28.0929C2.77269 26.1834 4.21134 24.4134 6.0598 23.5328C7.14969 23.0097 7.70772 22.8876 9.0679 22.8876C10.1578 22.8963 10.306 22.9138 11.0384 23.1666C13.349 23.9688 15.0231 25.73 15.6073 27.9796L15.7642 28.555L21.2224 28.5812L26.6806 28.5986V24.2391V19.8795H13.3403H0V24.2391Z" fill="#F7CB0F"/>
<path d="M7.83916 25.5296C5.98198 26.0179 4.70898 27.7094 4.70898 29.6887C4.70898 30.9181 5.11006 31.8946 5.96454 32.7491C7.5863 34.3708 10.2544 34.4232 11.9023 32.8624C13.7071 31.1622 13.7943 28.529 12.1203 26.7329C11.0216 25.5558 9.43476 25.1111 7.83916 25.5296Z" fill="#F7CB0F"/>
<path d="M34.7974 25.5121C32.6874 26.0788 31.301 28.1801 31.6411 30.325C31.9637 32.4438 33.8034 34.0219 35.9222 33.9958C38.3374 33.9783 40.1946 32.1124 40.1946 29.6885C40.1946 27.2472 38.3199 25.3813 35.8786 25.3813C35.5473 25.3813 35.059 25.4423 34.7974 25.5121Z" fill="#F7CB0F"/>
</svg>
